<svg width="25" height="24" viewBox="0 0 25 24" fill="none" xmlns="http://www.w3.org/2000/svg">
<g id="vuesax/linear/note-2">
<g id="note-2">
<path id="Vector" d="M21.9932 10.44L21.0132 14.62C20.1732 18.23 18.5132 19.69 15.3932 19.39C14.8932 19.35 14.3532 19.26 13.7732 19.12L12.0932 18.72C7.92319 17.73 6.63319 15.67 7.61319 11.49L8.59319 7.30001C8.79319 6.45001 9.03319 5.71001 9.33319 5.10001C10.5032 2.68001 12.4932 2.03001 15.8332 2.82001L17.5032 3.21001C21.6932 4.19001 22.9732 6.26001 21.9932 10.44Z" stroke="white" stroke-width="1.5" stroke-linecap="round" stroke-linejoin="round"/>
<path id="Vector_2" d="M15.3933 19.3901C14.7733 19.8101 13.9933 20.1601 13.0433 20.4701L11.4633 20.9901C7.49335 22.2701 5.40335 21.2001 4.11335 17.2301L2.83335 13.2801C1.55335 9.3101 2.61335 7.2101 6.58335 5.9301L8.16335 5.4101C8.57335 5.2801 8.96335 5.1701 9.33335 5.1001C9.03335 5.7101 8.79335 6.4501 8.59335 7.3001L7.61335 11.4901C6.63335 15.6701 7.92335 17.7301 12.0933 18.7201L13.7733 19.1201C14.3533 19.2601 14.8933 19.3501 15.3933 19.3901Z" stroke="white" stroke-width="1.5" stroke-linecap="round" stroke-linejoin="round"/>
<path id="Vector_3" d="M12.9727 8.52979L17.8227 9.75979" stroke="white" stroke-width="1.5" stroke-linecap="round" stroke-linejoin="round"/>
<path id="Vector_4" d="M11.9932 12.3999L14.8932 13.1399" stroke="white" stroke-width="1.5" stroke-linecap="round" stroke-linejoin="round"/>
</g>
</g>
</svg>
